# xmcd
#
# Track frame offsets: 
#        150
#        11782
#        23570
#        35612
#        48835
#        61557
#        74077
#        87652
#        100885
#        116022
#        126520
#        137610
#        149342
#        162015
#        176280
#        189827
#        203095
#        217377
#        230287
#        245330
#        257412
#        272512
#        287425
#        301147
#
# Disc length: 4192 seconds
#
# Revision: 5
# Processed by: cddbd v1.5.2PL0 Copyright (c) Steve Scherf et al.
# Submitted via: ExactAudioCopy v1.1
#
DISCID=50105e18
DTITLE=Jimmie Rodgers - The Singing Brakeman - Disc 3
DYEAR=1992
DGENRE=Country
TTITLE0=Mississippi River Blues (alt - take 1) (mono)
TTITLE1=Mississippi River Blues (master - take 3) (mono)
TTITLE2=Nobody Knows But Me (mono)
TTITLE3=Anniversary Blue Yodel (master - take 1) (mono)
TTITLE4=Anniversary Blue Yodel (alt - take unknown) (mono)
TTITLE5=She Was Happy Till She Met You (mono)
TTITLE6=Blue Yodel #11 (master - take 1) (mono)
TTITLE7=Blue Yodel #11 (alt - take 4) (mono)
TTITLE8=A Drunkard's Child (mono)
TTITLE9=That's Why I'm Blue (mono)
TTITLE10=Why Did You Give Me Your Love (alt - take 1) (mono)
TTITLE11=Why Did You Give Me Your Love (master - take 3) (mono)
TTITLE12=My Blue Eyed Jane (mono)
TTITLE13=Why Should I Be Lonely (mono)
TTITLE14=Moonlight And Skies (mono)
TTITLE15=Pistol Packin' Papa (mono)
TTITLE16=Take Me Back Again (mono)
TTITLE17=Those Gambler's Blues (mono)
TTITLE18=I'm Lonesome, Too (mono)
TTITLE19=The One Rose (mono)
TTITLE20=For The Sake Of The Days Gone By (mono)
TTITLE21=Jimmie's Mean Mama Blues (mono)
TTITLE22=The Mystery Of Number Five (mono)
TTITLE23=Blue Yodel #8 (mono)
EXTD=Bear Family Records  BCD15540\n6 CD Boxed Set with book/discograp
EXTD=hy\n1992  Recorded Aug 1927 - May 1933\nTitles include release ye
EXTD=ar. YEAR: 1992
EXTT0=
EXTT1=
EXTT2=
EXTT3=
EXTT4=
EXTT5=
EXTT6=
EXTT7=
EXTT8=
EXTT9=
EXTT10=
EXTT11=
EXTT12=
EXTT13=
EXTT14=
EXTT15=
EXTT16=
EXTT17=
EXTT18=
EXTT19=
EXTT20=
EXTT21=
EXTT22=
EXTT23=
PLAYORDER=
